<?xml version="1.0" standalone="no"?>
<!DOCTYPE svg PUBLIC "-//W3C//DTD SVG 20010904//EN"
 "http://www.w3.org/TR/2001/REC-SVG-20010904/DTD/svg10.dtd">
<svg version="1.0" xmlns="http://www.w3.org/2000/svg"
 width="500.000000pt" height="500.000000pt" viewBox="0 0 500.000000 500.000000"
 preserveAspectRatio="xMidYMid meet">

<g transform="translate(0.000000,500.000000) scale(0.100000,-0.100000)"
fill="#000000" stroke="none">
<path d="M2268 4123 c-35 -4 -37 -6 -47 -55 -7 -28 -10 -52 -8 -54 9 -9 79 11
86 25 14 25 24 91 15 89 -5 -1 -26 -3 -46 -5z"/>
<path d="M2385 4101 c-3 -14 -8 -33 -11 -42 -4 -14 8 -18 77 -23 102 -9 211
-37 310 -80 99 -43 102 -21 6 44 -75 51 -218 104 -314 118 -61 8 -62 8 -68
-17z"/>
<path d="M2123 4087 c-44 -16 -50 -24 -57 -84 l-7 -52 45 16 c41 16 45 20 51
61 4 25 9 51 12 58 6 16 -1 17 -44 1z"/>
<path d="M1943 4013 c-110 -68 -182 -146 -233 -254 -16 -35 -30 -69 -30 -76 0
-18 -11 -22 -154 -58 -165 -40 -239 -78 -311 -158 -63 -69 -92 -140 -125 -301
l-22 -108 21 -22 c76 -81 18 -206 -95 -206 -79 0 -139 80 -114 154 6 19 21 41
34 49 17 12 26 31 35 84 6 37 17 98 25 135 l13 68 -104 -103 c-132 -130 -158
-178 -151 -277 20 -281 392 -344 509 -86 25 56 25 160 0 224 -18 45 -18 53 -5
117 26 123 78 206 154 245 20 10 110 39 201 65 90 25 171 48 180 51 11 3 19
21 23 54 10 78 66 176 140 245 l64 60 5 68 c2 37 4 67 3 67 -1 0 -30 -17 -63
-37z"/>
<path d="M2728 3807 l-248 -41 0 -519 0 -520 48 7 c192 25 240 19 293 -41 47
-54 61 -97 67 -210 l5 -103 73 0 74 0 0 66 0 66 -50 -4 c-46 -3 -50 -1 -50 19
0 19 6 22 48 25 l47 3 3 83 3 82 -33 0 c-27 1 -38 8 -61 41 -19 28 -45 49 -83
66 -48 22 -66 25 -135 21 l-79 -3 0 376 0 375 136 20 c131 19 136 19 145 2 25
-46 139 -417 139 -450 0 -21 -2 -38 -5 -38 -3 0 -29 19 -58 43 -30 23 -67 52
-83 64 -28 21 -28 22 -6 22 22 1 22 3 22 131 l0 129 -33 6 c-18 4 -50 5 -71 3
l-38 -3 0 -133 c1 -73 4 -137 7 -142 4 -6 52 -45 108 -87 169 -126 157 -107
157 -243 l0 -116 50 -49 50 -49 0 -212 0 -211 -132 -7 c-73 -4 -152 -9 -175
-12 l-43 -6 0 115 c0 195 -26 267 -114 311 -43 21 -30 22 -511 -34 -143 -16
-266 -30 -272 -30 -7 0 -13 -8 -13 -17 0 -11 -12 -1 -31 25 -41 57 -91 71
-152 44 -49 -22 -105 -83 -123 -133 l-11 -34 -18 43 c-23 56 -67 92 -111 92
-19 0 -83 -9 -142 -20 -59 -11 -129 -25 -157 -30 -27 -5 -151 -30 -274 -57
-210 -45 -221 -48 -165 -51 32 -2 182 4 332 14 150 9 274 15 276 13 2 -2 -4
-35 -14 -74 -35 -131 -23 -261 33 -372 30 -58 56 -77 98 -71 15 3 26 1 23 -4
-8 -12 124 -10 149 3 12 6 30 21 39 33 l17 21 30 -29 c24 -23 36 -28 65 -24
19 2 32 0 30 -4 -3 -4 28 -8 69 -8 90 0 113 15 152 94 l26 54 102 7 c56 4 143
11 192 16 141 14 175 12 175 -8 0 -10 13 -43 29 -75 l29 -56 -127 -8 -126 -7
60 -13 c33 -6 73 -17 88 -23 20 -8 244 -11 722 -11 570 0 702 3 737 14 24 8
58 17 76 21 17 4 32 11 32 16 0 6 -54 9 -140 7 -77 -2 -140 -2 -140 -2 0 1 11
22 25 45 44 78 50 75 -177 83 -110 3 -203 5 -205 3 -2 -2 11 -33 29 -68 l33
-64 -273 3 -272 3 16 25 c9 13 27 53 39 87 l23 62 93 5 c93 6 681 -4 877 -14
l102 -6 0 235 0 235 -30 0 c-16 0 -30 2 -30 5 0 3 14 24 30 47 l30 41 0 314 0
313 -26 10 c-14 6 -36 10 -48 10 -18 0 -28 12 -49 58 l-26 57 28 5 28 5 -63
105 c-35 57 -67 106 -71 107 -32 9 -818 133 -840 132 -15 -1 -139 -20 -275
-42z m825 -116 c218 -35 241 -40 265 -64 14 -15 24 -29 21 -31 -3 -3 -45 2
-94 10 -50 8 -153 23 -229 34 -120 17 -146 24 -188 51 -26 17 -48 33 -48 35 0
8 41 3 273 -35z m-98 -117 c204 -31 371 -57 373 -59 8 -8 140 -371 136 -375
-4 -3 -325 33 -751 86 -40 5 -43 7 -62 59 -31 83 -121 343 -121 350 0 4 12 4
28 1 15 -3 194 -31 397 -62z m-165 -419 c151 -12 729 -91 739 -100 2 -3 -45
-5 -105 -5 -136 1 -594 61 -684 90 -67 22 -93 35 -50 26 14 -3 59 -8 100 -11z
m399 -161 c162 -18 296 -35 298 -37 2 -2 -18 -7 -45 -10 -27 -3 -65 -13 -85
-23 -35 -17 -44 -16 -239 8 -195 24 -206 27 -281 66 l-78 40 68 -5 c37 -2 200
-20 362 -39z m-175 -130 c88 -8 196 -20 240 -25 45 -5 113 -13 151 -16 67 -6
69 -7 31 -15 -21 -4 -54 -16 -74 -25 -33 -16 -46 -15 -233 4 l-198 21 -73 41
c-64 36 -68 41 -38 36 19 -2 107 -12 194 -21z m181 -242 l220 -17 3 -112 c3
-112 2 -113 -20 -113 -44 0 -404 20 -465 26 l-63 6 0 120 0 119 53 -6 c28 -4
151 -14 272 -23z m-1200 -34 c-37 -29 -55 -76 -55 -147 l0 -60 -37 -3 -38 -3
-5 -65 c-5 -68 -7 -66 -26 31 l-6 31 -74 -7 -74 -7 0 62 0 63 -52 -7 c-29 -3
-74 -6 -100 -6 l-48 0 0 -38 c0 -22 -3 -74 -7 -117 -9 -115 -24 -64 -30 108
-5 129 -5 137 13 138 10 0 116 11 234 24 118 12 241 23 274 24 l59 1 -28 -22z
m800 -3 c43 -42 25 -105 -30 -105 -42 0 -63 81 -29 114 21 22 31 20 59 -9z
m735 -64 c29 -54 -10 -112 -51 -75 -21 19 -25 64 -7 82 18 18 46 14 58 -7z
m-2215 -26 c14 -13 25 -32 24 -42 0 -11 -3 -13 -6 -5 -7 19 -31 14 -43 -8 -16
-30 -32 -128 -25 -151 6 -18 10 -16 46 23 l40 43 -5 -78 c-3 -54 -11 -87 -25
-111 -30 -47 -47 -51 -81 -18 -65 66 -62 261 6 342 31 36 38 37 69 5z m903 12
c6 -7 16 -26 22 -42 11 -28 11 -29 -9 -11 -19 17 -20 17 -36 -8 -19 -29 -43
-152 -32 -163 5 -4 26 13 48 37 l40 45 -4 -72 c-7 -113 -54 -174 -107 -135
-66 50 -62 298 7 350 22 16 58 16 71 -1z m-1219 -53 c24 -30 28 -52 7 -35 -24
20 -50 -34 -54 -114 l-4 -70 32 43 c17 23 36 42 41 42 12 0 11 -66 -2 -112 -5
-21 -21 -50 -34 -65 -28 -33 -48 -26 -79 27 -42 71 -18 256 37 295 29 20 32
19 56 -11z"/>
<path d="M3420 2530 c0 -60 3 -70 18 -70 9 0 91 -7 182 -15 91 -8 184 -15 208
-15 l42 0 0 68 0 68 -182 17 c-101 10 -202 17 -225 17 l-43 0 0 -70z"/>
<path d="M2015 3789 c-11 -7 -32 -24 -46 -39 -16 -17 -41 -30 -68 -35 -23 -4
-45 -14 -50 -23 -13 -27 -32 -114 -26 -120 3 -3 37 2 76 11 63 15 73 15 99 2
60 -31 145 -10 169 42 36 78 -9 162 -89 169 -25 3 -54 -1 -65 -7z m89 -62 c24
-18 24 -67 0 -84 -29 -21 -76 -12 -91 16 -27 55 40 105 91 68z"/>
<path d="M2362 3465 c-25 -158 -43 -225 -68 -245 -10 -9 -14 -34 -14 -85 0
-87 30 -74 -250 -110 -107 -13 -305 -40 -439 -60 -134 -19 -245 -35 -246 -35
-2 0 -6 -17 -10 -37 -3 -21 -15 -55 -26 -76 -18 -36 -18 -38 -2 -33 10 2 88
12 173 21 85 9 291 34 456 56 166 21 311 39 323 39 19 0 21 -5 21 -70 l0 -70
43 0 c23 0 48 4 55 8 10 7 12 99 10 428 l-3 419 -23 -150z"/>
<path d="M2202 3502 c-66 -74 -81 -97 -87 -133 -3 -24 -9 -52 -11 -62 -8 -25
-60 -49 -109 -49 -107 0 -180 82 -210 235 -4 21 -10 27 -23 23 -9 -3 -37 -10
-61 -16 l-44 -11 7 -47 c17 -128 118 -259 231 -301 135 -51 288 8 345 134 18
38 57 301 47 311 -3 3 -41 -35 -85 -84z"/>
<path d="M1610 3225 c-8 -2 -82 -14 -165 -26 -82 -12 -151 -23 -152 -24 -2 -1
6 -19 16 -41 11 -22 23 -53 27 -68 6 -25 10 -27 38 -23 17 3 119 18 226 33
107 15 197 29 199 31 2 1 -22 30 -55 63 -59 59 -76 67 -134 55z"/>
<path d="M1215 2393 c-61 -8 -472 -94 -520 -108 -48 -14 -44 -14 100 -10 83 3
223 8 312 11 l161 6 4 54 c3 58 6 56 -57 47z"/>
<path d="M1200 2183 c-59 -7 -472 -92 -520 -107 -41 -13 -15 -14 289 -15 263
-1 332 2 328 12 -2 6 -13 36 -23 65 -10 28 -23 51 -29 50 -5 0 -26 -3 -45 -5z"/>
<path d="M964 1935 c3 -9 13 -44 21 -78 22 -85 63 -223 82 -274 l16 -43 110 0
110 0 -34 23 c-31 21 -93 122 -84 137 2 4 39 5 81 2 77 -4 79 -5 160 -66 75
-55 204 -145 442 -310 47 -32 121 -84 163 -115 144 -104 360 -256 404 -284
l44 -28 65 43 c87 58 343 238 437 309 42 31 103 74 135 96 33 21 151 105 265
185 113 80 216 151 229 158 23 12 148 15 160 4 11 -11 -55 -116 -81 -130 -16
-8 -29 -17 -29 -19 0 -3 49 -5 109 -5 l109 0 23 68 c12 37 32 105 44 152 l22
85 -756 5 -756 5 -82 48 -82 47 -667 0 c-594 0 -666 -2 -660 -15z m2281 -261
c-16 -14 -45 -37 -62 -51 l-32 -25 -673 4 -674 3 -54 40 -55 40 50 6 c28 3
383 6 790 7 l740 1 -30 -25z m-336 -235 l-64 -50 -378 4 -378 5 -47 38 c-26
20 -51 41 -56 46 -6 4 214 8 488 8 l498 0 -63 -51z m-269 -209 l-55 -49 -98
-1 -99 0 -59 46 c-32 26 -59 49 -59 50 0 2 96 4 213 4 l212 -1 -55 -49z"/>
</g>
</svg>
