<svg xmlns="http://www.w3.org/2000/svg" width="667" height="374" viewBox="0 0 667 374" version="1.1"><path d="M 364 130.637 C 351.374 132.481, 337.360 136.606, 323.143 142.665 C 317.289 145.160, 312.370 147.323, 312.212 147.472 C 312.053 147.622, 316.114 151.964, 321.237 157.122 C 331.384 167.339, 342.315 180.057, 351.532 192.370 L 357.423 200.241 365.962 199.582 C 408.840 196.275, 430.573 191.528, 446.120 182.073 L 449.198 180.201 439.349 170.345 C 427.866 158.854, 417.020 149.185, 404.694 139.453 C 396.522 133.001, 395.370 132.415, 388.694 131.326 C 381.831 130.206, 369.339 129.858, 364 130.637 M 217.509 132.100 C 213.114 132.640, 209.150 133.450, 208.700 133.900 C 207.470 135.130, 211.725 147.102, 214.525 150.292 C 220.818 157.460, 254.772 174.357, 284.502 185.114 L 293.245 188.278 290.064 189.615 C 287.121 190.853, 286.906 191.266, 287.191 195.126 C 287.678 201.702, 290.805 203.433, 302.824 203.777 C 308.146 203.930, 313.822 204.103, 315.437 204.161 C 317.553 204.238, 319.017 203.462, 320.674 201.385 L 322.973 198.501 330.643 201.260 C 334.862 202.778, 338.512 203.821, 338.754 203.580 C 340.314 202.019, 315.682 171.831, 302.378 159 C 280.896 138.282, 267.582 132.563, 238.500 131.565 C 231.350 131.319, 221.904 131.560, 217.509 132.100 M 441.167 157.900 C 441.350 158.396, 443.696 161.139, 446.381 163.998 C 451.824 169.792, 452.958 169.511, 452.985 162.357 C 452.995 159.491, 452.512 158.027, 451.418 157.607 C 448.952 156.661, 440.794 156.894, 441.167 157.900 M 209 175.452 C 209 176.423, 210.835 177.858, 213.583 179.036 C 219.009 181.362, 220 181.454, 220 179.636 C 220 178.886, 217.865 177.423, 215.255 176.386 C 212.645 175.349, 210.170 174.350, 209.755 174.167 C 209.340 173.983, 209 174.562, 209 175.452 M 190.500 180.954 C 185.557 182.999, 181.721 189.782, 180.543 198.560 C 179.572 205.804, 182.438 219.943, 186.508 227.981 C 192.258 239.336, 197.379 242.540, 212.237 244.077 C 225.595 245.459, 235.297 248.277, 258.656 257.560 C 270.292 262.185, 284.017 267.516, 289.156 269.408 C 315.844 279.232, 325.125 284.263, 330.320 291.720 C 333.866 296.811, 339.192 300.885, 345.378 303.238 C 355.311 307.016, 414.710 308.632, 431.961 305.594 C 452.445 301.986, 468.744 294.323, 478.663 283.636 C 481.656 280.411, 483.931 277.597, 483.717 277.383 C 483.503 277.170, 480.667 277.913, 477.414 279.035 C 448.195 289.114, 388.795 295.260, 373.603 289.777 L 369.706 288.370 369.887 279.935 C 370.285 261.374, 360.806 241.957, 348.420 235.961 C 339.989 231.880, 331.442 235.325, 326.943 244.617 C 325.225 248.167, 324.568 251.655, 324.207 259.144 C 323.946 264.565, 323.378 269, 322.945 269 C 322.513 269, 306.710 262.885, 287.829 255.411 C 257.592 243.441, 235.646 234.826, 221 229.176 L 216.500 227.440 215.894 218.470 C 215.181 207.917, 213.829 202.560, 209.977 195.025 C 206.453 188.130, 202.069 183.345, 197.548 181.456 C 193.634 179.820, 193.299 179.796, 190.500 180.954 M 190.783 194.750 C 187.876 198.083, 187 200.896, 187 206.897 C 187 223.090, 198.718 235.682, 205.401 226.669 C 207.147 224.315, 207.489 222.465, 207.436 215.669 C 207.382 208.870, 206.927 206.636, 204.719 202.349 C 200.408 193.976, 194.343 190.669, 190.783 194.750 M 261.004 196.750 C 261.008 198.769, 269.133 202.547, 271.510 201.635 C 274.145 200.624, 273.121 199.418, 267.731 197.184 C 261.370 194.548, 260.999 194.524, 261.004 196.750 M 337.524 251.385 C 330.193 258.716, 332.703 277.982, 342.094 286.466 C 346.765 290.686, 349.948 291.617, 353.626 289.840 C 361.242 286.160, 362.886 272.305, 357.101 260.555 C 355.295 256.885, 352.437 252.910, 350.595 251.505 C 346.234 248.178, 340.781 248.128, 337.524 251.385" stroke="none" fill="#343536" fill-rule="evenodd"/><path d="M 273 106.643 C 268.092 107.121, 237.837 111.428, 229 112.907 C 204.662 116.979, 182.457 127.346, 177.552 136.925 C 176.827 138.341, 175.719 143.325, 175.091 148 C 174.462 152.675, 173.489 158.300, 172.929 160.500 C 172.368 162.700, 171.642 172.450, 171.314 182.167 L 170.718 199.834 173.387 202.308 C 174.855 203.668, 176.892 205, 177.913 205.267 C 179.522 205.688, 179.862 204.941, 180.458 199.669 C 181.604 189.537, 186.021 181.965, 191.601 180.564 C 197.274 179.140, 204.941 185.174, 209.977 195.025 C 213.829 202.560, 215.181 207.917, 215.894 218.470 L 216.500 227.440 221 229.176 C 235.646 234.826, 257.592 243.441, 287.829 255.411 C 306.710 262.885, 322.513 269, 322.945 269 C 323.378 269, 323.946 264.565, 324.207 259.144 C 324.568 251.655, 325.225 248.167, 326.943 244.617 C 331.442 235.325, 339.989 231.880, 348.420 235.961 C 360.806 241.957, 370.285 261.374, 369.887 279.935 L 369.706 288.370 373.603 289.777 C 383.269 293.265, 411.471 292.269, 441.450 287.379 C 479.018 281.251, 502.685 271.390, 508.903 259.274 C 510.604 255.958, 510.347 231.070, 508.513 221.621 C 507.672 217.287, 505.767 211.506, 504.280 208.773 C 499.462 199.921, 486.041 189.660, 471.742 183.896 C 462.833 180.305, 453.011 172.321, 452.985 168.650 C 452.973 167.074, 452.741 166.860, 452.116 167.847 C 451.473 168.862, 450.057 167.911, 446.381 163.998 C 443.696 161.139, 441.359 158.423, 441.187 157.961 C 441.015 157.499, 442.815 156.934, 445.187 156.705 C 449.256 156.312, 449.212 156.290, 444.404 156.316 C 439.461 156.343, 439.043 156.111, 430.404 148.549 C 400.540 122.409, 381.027 112.373, 351.500 107.967 C 344.388 106.906, 281.231 105.840, 273 106.643 M 364 130.637 C 351.374 132.481, 337.360 136.606, 323.143 142.665 C 317.289 145.160, 312.370 147.323, 312.212 147.472 C 312.053 147.622, 316.114 151.964, 321.237 157.122 C 331.384 167.339, 342.315 180.057, 351.532 192.370 L 357.423 200.241 365.962 199.582 C 408.840 196.275, 430.573 191.528, 446.120 182.073 L 449.198 180.201 439.349 170.345 C 427.866 158.854, 417.020 149.185, 404.694 139.453 C 396.522 133.001, 395.370 132.415, 388.694 131.326 C 381.831 130.206, 369.339 129.858, 364 130.637 M 217.509 132.100 C 213.114 132.640, 209.150 133.450, 208.700 133.900 C 207.470 135.130, 211.725 147.102, 214.525 150.292 C 220.818 157.460, 254.772 174.357, 284.502 185.114 L 293.245 188.278 290.064 189.615 C 287.121 190.853, 286.906 191.266, 287.191 195.126 C 287.678 201.702, 290.805 203.433, 302.824 203.777 C 308.146 203.930, 313.822 204.103, 315.437 204.161 C 317.553 204.238, 319.017 203.462, 320.674 201.385 L 322.973 198.501 330.643 201.260 C 334.862 202.778, 338.512 203.821, 338.754 203.580 C 340.314 202.019, 315.682 171.831, 302.378 159 C 280.896 138.282, 267.582 132.563, 238.500 131.565 C 231.350 131.319, 221.904 131.560, 217.509 132.100 M 209 175.452 C 209 176.423, 210.835 177.858, 213.583 179.036 C 219.009 181.362, 220 181.454, 220 179.636 C 220 178.886, 217.865 177.423, 215.255 176.386 C 212.645 175.349, 210.170 174.350, 209.755 174.167 C 209.340 173.983, 209 174.562, 209 175.452 M 190.783 194.750 C 187.876 198.083, 187 200.896, 187 206.897 C 187 223.090, 198.718 235.682, 205.401 226.669 C 207.147 224.315, 207.489 222.465, 207.436 215.669 C 207.382 208.870, 206.927 206.636, 204.719 202.349 C 200.408 193.976, 194.343 190.669, 190.783 194.750 M 261.004 196.750 C 261.008 198.769, 269.133 202.547, 271.510 201.635 C 274.145 200.624, 273.121 199.418, 267.731 197.184 C 261.370 194.548, 260.999 194.524, 261.004 196.750 M 337.524 251.385 C 330.193 258.716, 332.703 277.982, 342.094 286.466 C 346.765 290.686, 349.948 291.617, 353.626 289.840 C 361.242 286.160, 362.886 272.305, 357.101 260.555 C 355.295 256.885, 352.437 252.910, 350.595 251.505 C 346.234 248.178, 340.781 248.128, 337.524 251.385" stroke="none" fill="#dfe0e0" fill-rule="evenodd"/></svg>